# xmcd CD database file
#
# Track frame offsets:
#	150
#	17440
#	38035
#	57745
#	71087
#	91782
#	114197
#	136202
#	150070
#	173617
#	188540
#	206025
#	223525
#	235407
#	248840
#	273072
#	283277
#	304397
#	320990
#
# Disc length: 4532 seconds
#
# Revision: 1
# Processed by: cddbd v1.4PL0 Copyright (c) Steve Scherf et al.
# Submitted via: CDex 1.50beta10
#
DISCID=0911b213
DTITLE=Tatum, Art - The Complete Pablo Solo Masterpieces [CD6]
DYEAR=1900
DGENRE=Jazz
TTITLE0=Somebody Loves Me
TTITLE1=What's New
TTITLE2=Sweet Lorraine
TTITLE3=Crazy Rhythm
TTITLE4=Isn't it Romantic
TTITLE5=You're Blase
TTITLE6=You're Mine You
TTITLE7=Indiana (Back Home Again in Indiana)
TTITLE8=That Old Feeling
TTITLE9=Heat Wave
TTITLE10=She's Funny THat Way
TTITLE11=I Surrender Dear
TTITLE12=Happy Feet
TTITLE13=Mean To Me
TTITLE14=Boulevard of Broken Dreams
TTITLE15=Moonlight on the Ganges
TTITLE16=Moon Song
TTITLE17=When Your Love Has Gone
TTITLE18=The Moon Is Low
EXTD=
EXTT0=
EXTT1=
EXTT2=
EXTT3=
EXTT4=
EXTT5=
EXTT6=
EXTT7=
EXTT8=
EXTT9=
EXTT10=
EXTT11=
EXTT12=
EXTT13=
EXTT14=
EXTT15=
EXTT16=
EXTT17=
EXTT18=
PLAYORDER=
